<svg id="master-artboard" xmlns="http://www.w3.org/2000/svg" viewBox="0 0 2800 2000"><defs><style>.cls-1{fill:#eff1f9;}.cls-2{fill:#6e758e;}.cls-3{fill:#a8afc6;}.cls-4{fill:#d1d5e5;}.cls-5{fill:#fff;}.cls-6{fill:#f4f5fb;}.cls-7{fill:#7f6149;}.cls-8{fill:#eca49b;}.cls-9{fill:#545972;}.cls-10{fill:#646884;}.cls-11{fill:#3d4359;}.cls-12{fill:#b9bed6;}.cls-13{fill:#a3aac1;}.cls-14{fill:#d38984;}.cls-15{fill:#c9807b;}.cls-16{fill:#f9bbb7;}.cls-17{fill:#404263;}.cls-18{fill:#505372;}.cls-19{fill:#dfe0ea;}.cls-20{fill:#e7e8f2;}.cls-21{fill:#2d3049;}.cls-22{fill:#d18a84;}.cls-23{fill:#f75f88;}.cls-24{fill:#ffdb8a;}.cls-25{fill:#d6a034;}.cls-26{fill:#bc8628;}.cls-27{fill:#6d4f3a;}.cls-28{fill:#ea8f7d;}.cls-29{fill:#f29c8b;}.cls-30{fill:#2f324c;}.cls-31{fill:#ffaa94;}.cls-32{fill:#e08d7c;}.cls-33{fill:#cc4874;}.cls-34{fill:#2a2d47;}.cls-35{fill:#ed9888;}</style></defs><title>personal-trainers</title><path class="cls-1" d="M0,0H2800V2000H0Z"/><path class="cls-2" d="M1893.67,1491.38l4-15.58a35.14,35.14,0,0,0-34.05-43.87H1828A35.15,35.15,0,0,0,1794,1475.8l4,15.58a65.17,65.17,0,0,0-17.55,44.56c0,36.13,29.28,45.33,65.4,45.33s65.41-9.2,65.41-45.33A65.17,65.17,0,0,0,1893.67,1491.38Zm-83-37.78a21.83,21.83,0,0,1,17.36-8.5h35.57a22,22,0,0,1,21.29,27.43l-2.37,9.28a65.41,65.41,0,0,0-73.41,0l-2.38-9.28A21.85,21.85,0,0,1,1810.67,1453.6Z"/><path class="cls-2" d="M1586.54,1310.21h-14.12a16.23,16.23,0,0,0-16.23,16.23v234.07a16.23,16.23,0,0,0,16.23,16.23h14.12a16.23,16.23,0,0,0,16.23-16.23V1326.44A16.23,16.23,0,0,0,1586.54,1310.21Z"/><path class="cls-2" d="M1627.91,1343.58H1614.4a15.55,15.55,0,0,0-15.55,15.55v168.7a15.55,15.55,0,0,0,15.55,15.55h13.51a15.55,15.55,0,0,0,15.55-15.55v-168.7A15.55,15.55,0,0,0,1627.91,1343.58Z"/><path class="cls-2" d="M975.24,1310.21h14.11a16.24,16.24,0,0,1,16.24,16.23v234.07a16.23,16.23,0,0,1-16.24,16.23H975.24A16.22,16.22,0,0,1,959,1560.51V1326.44A16.23,16.23,0,0,1,975.24,1310.21Z"/><path class="cls-2" d="M933.86,1343.58h13.52a15.55,15.55,0,0,1,15.54,15.55v168.7a15.55,15.55,0,0,1-15.54,15.55H933.86a15.55,15.55,0,0,1-15.54-15.55v-168.7A15.55,15.55,0,0,1,933.86,1343.58Z"/><path class="cls-2" d="M870.57,1427.32H1691.2v32.32H870.57Z"/><path class="cls-3" d="M2237,1653.79c0,59.37-374.74,107.49-837,107.49s-837-48.12-837-107.49,374.74-107.49,837-107.49S2237,1594.43,2237,1653.79Z"/><path class="cls-2" d="M1923.56,1629.24c0,30.82-252.54,55.81-564.07,55.81h0c-311.53,0-564.08-25-564.08-55.81h0c0-30.82,252.55-55.81,564.08-55.81h0c311.53,0,564.07,25,564.07,55.81Z"/><path class="cls-2" d="M1455.41,1644.44c7.1,29.82-45.86,68-118.28,85.23s-136.9,7.06-144-22.76,45.85-68,118.28-85.23S1448.3,1614.62,1455.41,1644.44Z"/><path class="cls-4" d="M827.75,1181H730a8.8,8.8,0,0,0-8.8,8.8V1217a8.8,8.8,0,0,0,8.8,8.8h97.71a8.79,8.79,0,0,0,8.79-8.8v-27.19A8.79,8.79,0,0,0,827.75,1181Z"/><path class="cls-4" d="M1938.64,1118.17h-97.71a8.8,8.8,0,0,0-8.79,8.8v27.19a8.8,8.8,0,0,0,8.79,8.79h97.71a8.8,8.8,0,0,0,8.8-8.79V1127A8.8,8.8,0,0,0,1938.64,1118.17Z"/><path class="cls-4" d="M1110.69,1116H1013a8.8,8.8,0,0,0-8.8,8.8V1152a8.79,8.79,0,0,0,8.8,8.79h97.71a8.78,8.78,0,0,0,8.79-8.79v-27.19A8.79,8.79,0,0,0,1110.69,1116Z"/><path class="cls-4" d="M1828,1338.45h-97.71a8.8,8.8,0,0,0-8.8,8.79v27.19a8.8,8.8,0,0,0,8.8,8.8H1828a8.79,8.79,0,0,0,8.79-8.8v-27.19A8.79,8.79,0,0,0,1828,1338.45Z"/><path class="cls-5" d="M770.1,1258.12H672.39a8.8,8.8,0,0,0-8.8,8.8v27.19a8.8,8.8,0,0,0,8.8,8.8H770.1a8.8,8.8,0,0,0,8.79-8.8v-27.19A8.8,8.8,0,0,0,770.1,1258.12Z"/><path class="cls-5" d="M2080,1303.52h-97.71a8.79,8.79,0,0,0-8.79,8.79v27.19a8.8,8.8,0,0,0,8.79,8.8H2080a8.8,8.8,0,0,0,8.8-8.8v-27.19A8.79,8.79,0,0,0,2080,1303.52Z"/><path class="cls-5" d="M1310.53,1232.93h-97.71a8.79,8.79,0,0,0-8.79,8.8v27.19a8.78,8.78,0,0,0,8.79,8.79h97.71a8.79,8.79,0,0,0,8.8-8.79v-27.19A8.8,8.8,0,0,0,1310.53,1232.93Z"/><path class="cls-5" d="M1723.89,1216.43h-97.71a8.8,8.8,0,0,0-8.79,8.8v27.19a8.8,8.8,0,0,0,8.79,8.8h97.71a8.8,8.8,0,0,0,8.8-8.8v-27.19A8.8,8.8,0,0,0,1723.89,1216.43Z"/><path class="cls-4" d="M1986.52,1074.71H866.46a59.86,59.86,0,0,1-59.87-59.87V522.59a59.87,59.87,0,0,1,59.87-59.87H1986.52a59.87,59.87,0,0,1,59.87,59.87v492.25A59.86,59.86,0,0,1,1986.52,1074.71Z"/><path class="cls-6" d="M866.46,1032a17.2,17.2,0,0,1-17.18-17.18V522.59a17.19,17.19,0,0,1,17.18-17.17H1986.52a17.19,17.19,0,0,1,17.18,17.17v492.25a17.2,17.2,0,0,1-17.18,17.18Z"/><path class="cls-5" d="M1903.87,505.42h-27.32L1670,1032h27.32Z"/><path class="cls-5" d="M1584.61,1032h54.65l206.55-526.6h-54.64Z"/><path class="cls-7" d="M1653.78,361.71v72.86H1443.6V361.71a81,81,0,0,1,81-81h48.16a80.57,80.57,0,0,1,43.58,12.71c1.65,1,3.25,2.15,4.8,3.33A80.86,80.86,0,0,1,1653.78,361.71Z"/><path class="cls-8" d="M1479,882.21a54.52,54.52,0,0,1-54.53,54.53h0a54.53,54.53,0,0,1-54.54-54.53h0a54.54,54.54,0,0,1,54.54-54.54h0A54.53,54.53,0,0,1,1479,882.21Z"/><path class="cls-8" d="M1454.28,831.1l-72.23-80.75c15.68-10.26,31.33-27.05,43.62-48.34,13.5-23.38,20.26-47.56,20.19-67.37l9.31-16.85a40,40,0,0,0-70-38.71L1366,613.82a157.44,157.44,0,0,0-29.09,36.92c-9.59,16.61-15.77,33.62-18.53,49.18l-20.16,36.44a40,40,0,0,0,5.19,46l91.29,102a40,40,0,1,0,59.62-53.33Z"/><path class="cls-8" d="M1767.81,793.14l-13.74-57.58a217.26,217.26,0,0,0-.15-53c-4.59-38.22-17.64-70.67-33.49-88L1715.27,573a40,40,0,0,0-77.81,18.56l18.09,75.82a234.14,234.14,0,0,0,1.7,26.87c3.39,28.29,11.43,53.42,21.8,71.6l11,45.9a40,40,0,0,0,77.81-18.57Z"/><path class="cls-9" d="M1495.47,598.44a61,61,0,0,1-60.94,60.94h0a60.94,60.94,0,0,1-60.94-60.94h0a60.94,60.94,0,0,1,60.94-60.94h0a60.94,60.94,0,0,1,60.94,60.94Z"/><path class="cls-9" d="M1320,692.16c13.8-.24,56,5.5,71.41,41.65a65.58,65.58,0,0,0,3.32,6.8,155.52,155.52,0,0,0,31-38.6c13.5-23.38,20.26-47.56,20.19-67.37l9.31-16.85a40,40,0,0,0-70-38.71L1366,613.82a164.27,164.27,0,0,0-46,78.34Z"/><path class="cls-9" d="M1753.92,682.6c-3.9-32.49-13.92-60.82-26.58-79.24.13-1.62.22-3.26.22-4.92a60.94,60.94,0,1,0-74.26,59.46l2.25,9.44a234.14,234.14,0,0,0,1.7,26.87,227.69,227.69,0,0,0,7.84,38.09c11.73-13.28,53.38-39.42,90.08-8.28A225.6,225.6,0,0,0,1753.92,682.6Z"/><path class="cls-10" d="M1703,612.64v65a74.37,74.37,0,0,1-57.71,72.46V886.53H1455.83V750.06a74.36,74.36,0,0,1-57.7-72.46v-65A67.17,67.17,0,0,1,1451.21,547c11.87-10.66,27.8-19.33,46.35-25.07a185.17,185.17,0,0,1,106,0c18.55,5.74,34.49,14.41,46.35,25.07A67.18,67.18,0,0,1,1703,612.64Z"/><path class="cls-11" d="M1660.28,547a99,99,0,0,0-9.37-7.42,60.54,60.54,0,0,0-14.2,5.8c.49.53,1,1.07,1.45,1.62,23.58,6.47,41.27,33.41,41.27,65.67v65c0,19.58-5.89,37.37-15.51,50.64.38,1.37.77,2.72,1.17,4.06,6.45-7.3,21.93-18.48,40.65-21.9a73.91,73.91,0,0,0,7.63-32.8v-65A67.17,67.17,0,0,0,1660.28,547Z"/><path class="cls-9" d="M1649.93,547c-11.86-10.66-27.8-19.33-46.35-25.07a179.74,179.74,0,0,0-53-7.75,111.32,111.32,0,0,1,41.21,7.75,93,93,0,0,1,36,25.07c23.58,6.47,41.26,33.41,41.26,65.67v65c0,35.34-19.17,64.9-44.85,72.46V886.52h21.09V750.06A74.37,74.37,0,0,0,1703,677.6v-65A67.18,67.18,0,0,0,1649.93,547Z"/><path class="cls-12" d="M1404.46,584.15c27.93-9.93,73.9-24.89,100.94-31.55l2.08,7.5c-29.09,7.16-80.26,24-106.64,33.65A66.27,66.27,0,0,1,1404.46,584.15Zm292.23,0c-27.94-9.93-73.9-24.89-100.94-31.55l-2.09,7.5c29.09,7.16,80.26,24,106.65,33.65A67.45,67.45,0,0,0,1696.69,584.15Z"/><path class="cls-13" d="M1698.7,588.94l-.12-.31c-.26-.69-.54-1.38-.82-2.07l-.22-.49c-.28-.64-.56-1.28-.85-1.92h0c-10.94-3.89-24.65-8.55-38.9-13.18a71.25,71.25,0,0,1,5,9.85c14.32,4.73,27.62,9.33,37.47,12.93-.24-.82-.49-1.63-.76-2.43l0-.09C1699.26,590.46,1699,589.7,1698.7,588.94Z"/><path class="cls-12" d="M1603.58,521.9v9.2a53,53,0,1,1-106,0v-9.2a185.17,185.17,0,0,1,106,0Z"/><path class="cls-8" d="M1550.57,578.48h0a47.37,47.37,0,0,1-47.37-47.37V479.35h94.74v51.76A47.37,47.37,0,0,1,1550.57,578.48Z"/><path class="cls-14" d="M1503.2,519.72a58.61,58.61,0,0,0,36,12.3h47.23a59,59,0,0,0,11.52-1.13V479.35H1503.2Z"/><path class="cls-8" d="M1574.19,514.14H1527a58.81,58.81,0,0,1-58.81-58.81V380.07a66.59,66.59,0,0,1,66.59-66.59h31.69A66.58,66.58,0,0,1,1633,380.07v75.26A58.81,58.81,0,0,1,1574.19,514.14Z"/><path class="cls-8" d="M1666.46,439.8A26.45,26.45,0,0,1,1640,466.25h0a26.45,26.45,0,0,1-26.45-26.45h0A26.45,26.45,0,0,1,1640,413.35h0a26.45,26.45,0,0,1,26.44,26.45Z"/><path class="cls-8" d="M1487.58,439.8a26.45,26.45,0,0,1-26.45,26.45h0a26.45,26.45,0,0,1-26.45-26.45h0a26.45,26.45,0,0,1,26.45-26.45h0a26.45,26.45,0,0,1,26.45,26.45Z"/><path class="cls-1" d="M1550.57,490.8h0a19.52,19.52,0,0,1-19.52-19.53v-8.55h39v8.55A19.53,19.53,0,0,1,1550.57,490.8Z"/><path class="cls-8" d="M1556.63,526.32h-12.12A17.33,17.33,0,0,1,1527.18,509V497.86H1574V509A17.33,17.33,0,0,1,1556.63,526.32Z"/><path class="cls-8" d="M1559.3,922.91c-13.29,88.48,7.09,212.32,52.49,327.46,23.76,0,25.41-53.85,25.41-53.85l-45.75-273.61Z"/><path class="cls-8" d="M1727.76,1556.58l-28.82-185.77a81.27,81.27,0,0,0,2.57-30.12l-3.1-30.24a87.88,87.88,0,0,0-15.23-41.2l-6.24-40.23c-.06-.44-.14-.87-.22-1.31l-1.72-8.93c12.53-83.61,28-172.2-48.23-345.52h-11l-6,5.42,0-.21a36.19,36.19,0,0,0-42.41-29c-19.61,3.87-32.41,23.14-28.59,43l66.86,348.59,6.07,39.1a121.3,121.3,0,0,0-4.86,54.28l4.07,29.85c2,14.82,6.94,28.53,14.18,39.54l7.57,11.5L1656.3,1568a36.34,36.34,0,0,0,35.68,31,35.24,35.24,0,0,0,5.67-.46C1717.38,1595.39,1730.86,1576.6,1727.76,1556.58Z"/><path class="cls-5" d="M1692,1599a36.34,36.34,0,0,1-35.68-31l-7-45.08c-3.11-20,10.37-38.81,30.1-42a36.22,36.22,0,0,1,41.35,30.54l7,45.08c3.1,20-10.38,38.81-30.11,42A35.24,35.24,0,0,1,1692,1599Z"/><path class="cls-15" d="M1639,1251.08a24.88,24.88,0,0,1-24.48-21.36,26,26,0,0,0-.28,3.77,24.76,24.76,0,1,0,49.51,0,26,26,0,0,0-.27-3.77A24.88,24.88,0,0,1,1639,1251.08Z"/><path class="cls-16" d="M1617.74,1303.41a7.07,7.07,0,0,0-5.87,8.07l5.77,39a7,7,0,0,0,7.95,6,7.09,7.09,0,0,0,5.88-8.07l-5.77-39A7,7,0,0,0,1617.74,1303.41Z"/><path class="cls-17" d="M1669.06,1560.67v-7.78c0-7-5.31-13.05-12.22-13.38a12.93,12.93,0,0,0-13.46,13v91.4H1707v-72.75h-27.63A10.43,10.43,0,0,1,1669.06,1560.67Z"/><path class="cls-17" d="M1746.77,1612.57h-64.84v-62.26a20.55,20.55,0,0,1,20.56-20.55h23.73a20.55,20.55,0,0,1,20.55,20.55Z"/><path class="cls-18" d="M1711.61,1573.52h17.8a51.61,51.61,0,0,1,51.61,51.61v18.79H1660v-18.79A51.61,51.61,0,0,1,1711.61,1573.52Z"/><path class="cls-19" d="M1715.82,1559.72h0a1.85,1.85,0,0,1-1.34-.59l-12.1-12.86a1.91,1.91,0,0,1-.36-2,1.85,1.85,0,0,1,1.71-1.14h24.19a1.85,1.85,0,0,1,1.7,1.14,1.91,1.91,0,0,1-.36,2l-12.1,12.86A1.85,1.85,0,0,1,1715.82,1559.72Zm-7.76-12.87,7.76,8.26,7.76-8.26Z"/><path class="cls-5" d="M1762.3,1629H1643.78a10.06,10.06,0,0,0-10,10.13v9.56a10.06,10.06,0,0,0,10,10.13H1762.3a10.05,10.05,0,0,0,10-10.13v-9.56A10.05,10.05,0,0,0,1762.3,1629Z"/><path class="cls-19" d="M1778.06,1629H1659.54a10.05,10.05,0,0,0-10,10.13v9.56a10.05,10.05,0,0,0,10,10.13h118.52a10.06,10.06,0,0,0,10-10.13v-9.56A10.06,10.06,0,0,0,1778.06,1629Z"/><path class="cls-8" d="M1526.7,849.46a36.19,36.19,0,0,0-42.41,29l0,.21-6-5.42h-11c-76.23,173.32-60.76,261.91-48.24,345.52l-1.71,8.93c-.08.44-.16.87-.23,1.31l-6.24,40.23a88,88,0,0,0-15.22,41.2l-3.1,30.24a81.27,81.27,0,0,0,2.57,30.12l-28.82,185.77c-3.1,20,10.37,38.81,30.11,42a35.21,35.21,0,0,0,5.66.46,36.35,36.35,0,0,0,35.69-31l23.67-152.64,7.57-11.5c7.25-11,12.17-24.72,14.19-39.54l4.07-29.85a121.3,121.3,0,0,0-4.86-54.28l6.07-39.1,2.79-14.57C1522,1141.25,1539,1052.94,1538.7,979l16.59-86.49C1559.1,872.6,1546.3,853.33,1526.7,849.46Z"/><path class="cls-5" d="M1402,1599a36.35,36.35,0,0,0,35.69-31l7-45.08c3.11-20-10.37-38.81-30.1-42a36.24,36.24,0,0,0-41.36,30.54l-7,45.08c-3.1,20,10.37,38.81,30.11,42A35.21,35.21,0,0,0,1402,1599Z"/><path class="cls-15" d="M1455,1251.08a24.88,24.88,0,0,0,24.48-21.36,26,26,0,0,1,.28,3.77,24.76,24.76,0,1,1-49.52,0,26,26,0,0,1,.28-3.77A24.88,24.88,0,0,0,1455,1251.08Z"/><path class="cls-16" d="M1476.27,1303.41a7.08,7.08,0,0,1,5.88,8.07l-5.77,39a7,7,0,0,1-8,6,7.09,7.09,0,0,1-5.88-8.07l5.77-39A7,7,0,0,1,1476.27,1303.41Z"/><path class="cls-17" d="M1425,1560.67v-7.78c0-7,5.32-13.05,12.22-13.38a12.92,12.92,0,0,1,13.46,13v91.4H1387v-72.75h27.63A10.42,10.42,0,0,0,1425,1560.67Z"/><path class="cls-17" d="M1347.25,1612.57h64.84v-62.26a20.56,20.56,0,0,0-20.56-20.55H1367.8a20.55,20.55,0,0,0-20.55,20.55Z"/><path class="cls-18" d="M1382.4,1573.52h-17.79a51.61,51.61,0,0,0-51.61,51.61v18.79h121v-18.79A51.62,51.62,0,0,0,1382.4,1573.52Z"/><path class="cls-19" d="M1376.86,1559.13l-12.1-12.86a1.89,1.89,0,0,1-.36-2,1.85,1.85,0,0,1,1.7-1.14h24.19a1.86,1.86,0,0,1,1.71,1.14,1.89,1.89,0,0,1-.37,2l-12.09,12.86a1.87,1.87,0,0,1-1.34.59h0A1.85,1.85,0,0,1,1376.86,1559.13Zm-6.42-12.28,7.76,8.26,7.76-8.26Z"/><path class="cls-5" d="M1331.72,1629h118.52a10.05,10.05,0,0,1,10,10.13v9.56a10.05,10.05,0,0,1-10,10.13H1331.72a10.05,10.05,0,0,1-10-10.13v-9.56A10.05,10.05,0,0,1,1331.72,1629Z"/><path class="cls-19" d="M1316,1629h118.51a10.06,10.06,0,0,1,10,10.13v9.56a10.06,10.06,0,0,1-10,10.13H1316a10.06,10.06,0,0,1-10-10.13v-9.56A10.06,10.06,0,0,1,1316,1629Z"/><path class="cls-17" d="M1645.31,869V840.73H1455.84V869c-28.61,59.37-56.86,167-57.24,234-.41,71.53,127.58,68.7,137,16,4.64-26,10.64-64,15-100.77,4.34,36.79,10.35,74.8,15,100.77,9.41,52.7,137.4,55.53,137-16C1702.17,1035.92,1673.91,928.35,1645.31,869Z"/><path class="cls-20" d="M1628.89,1139.44l-9.35,1.12,13.39-36.69,9.34-1.12Z"/><path class="cls-20" d="M1646.74,1137.29l-9.35,1.12,13.39-36.69,9.34-1.12Z"/><path class="cls-21" d="M1645.31,869V840.73h-21.72V869c26.09,59.37,51.85,167,52.2,234,.18,33.81-25.8,51-54.15,54.17,38,3.85,81.15-12.6,80.91-54.17C1702.17,1035.92,1673.91,928.35,1645.31,869Z"/><path class="cls-22" d="M1609.73,816.7a15.51,15.51,0,0,1-14.23-9.33L1577,764.71a15.5,15.5,0,1,1,28.44-12.34l18.5,42.66a15.5,15.5,0,0,1-14.21,21.67Z"/><path class="cls-1" d="M1560.94,718.7h-51.32V698.08a10.77,10.77,0,0,1,10.75-10.75h29.82a10.76,10.76,0,0,1,10.75,10.75Zm-47.55-3.77h43.79V698.08a7,7,0,0,0-7-7h-29.82a7,7,0,0,0-7,7Z"/><path class="cls-23" d="M1586.14,898.88H1484.43a19.54,19.54,0,0,1-19.54-19.53V719.29a19.54,19.54,0,0,1,19.54-19.54h101.71a19.54,19.54,0,0,1,19.54,19.54V879.34A19.54,19.54,0,0,1,1586.14,898.88Z"/><path class="cls-1" d="M1516.84,712.11a5.34,5.34,0,1,1-5.33-5.33A5.33,5.33,0,0,1,1516.84,712.11Z"/><path class="cls-1" d="M1564.4,712.11a5.34,5.34,0,1,1-5.34-5.33A5.33,5.33,0,0,1,1564.4,712.11Z"/><path class="cls-8" d="M1768.18,794.83a40,40,0,0,0-46.87-31.67L1617.15,783.3a54.53,54.53,0,1,0-18.47,85.05l137.82-26.66A40,40,0,0,0,1768.18,794.83Z"/><path class="cls-14" d="M1742.4,823.11l-137.82,26.66a54.54,54.54,0,0,1-77.4-49.51,55.57,55.57,0,0,1,.46-7,54.53,54.53,0,0,0,71,75.08l137.82-26.66a40,40,0,0,0,32.34-36.84A39.88,39.88,0,0,1,1742.4,823.11Z"/><path class="cls-24" d="M1553.56,638.11a29.66,29.66,0,0,1-3,1.62,3.46,3.46,0,0,1-1.57,1.93,3.33,3.33,0,0,1-3.38,0,3.17,3.17,0,0,1-.89-.74,13.21,13.21,0,0,1-3.58-1.3,5.84,5.84,0,0,0,.67,2,6.26,6.26,0,0,0,4.33,3.17,6.34,6.34,0,0,0,1.16.11,6.11,6.11,0,0,0,3.23-.91,6.23,6.23,0,0,0,3-5.34A5.49,5.49,0,0,0,1553.56,638.11Zm-6.21-2.84a3.41,3.41,0,0,1,1.31.27,24.64,24.64,0,0,0,2.76-1.57,6.23,6.23,0,0,0-9.08,1,12.26,12.26,0,0,0,2.68,1.23A3.41,3.41,0,0,1,1547.35,635.27Z"/><path class="cls-24" d="M1551.74,652.81a15.67,15.67,0,0,0-1.17-6.19v-5h-12.19v0a3.83,3.83,0,0,0-3.63,3.82v25.28a4.08,4.08,0,0,0,4.08,4.08l.28,0v0h11.46V659A15.72,15.72,0,0,0,1551.74,652.81Z"/><path class="cls-25" d="M1555.57,641.66h-5.8v0a3.83,3.83,0,0,0-3.64,3.82v25.28a4.08,4.08,0,1,0,8.16,0v-7a6,6,0,0,0,1.28.15c4.38,0,7.56-4.69,7.56-11.15S1560,641.66,1555.57,641.66Z"/><path class="cls-26" d="M1559.39,652.81c0,4.09-1.71,7.41-3.82,7.41s-3.83-3.32-3.83-7.41,1.71-7.4,3.83-7.4S1559.39,648.72,1559.39,652.81Z"/><path class="cls-25" d="M1542.78,652.81h-4.53a1.63,1.63,0,0,1-1.63-1.63v0a1.64,1.64,0,0,1,1.63-1.64h4.53a1.64,1.64,0,0,1,1.63,1.64v0A1.63,1.63,0,0,1,1542.78,652.81Z"/><path class="cls-23" d="M1548.66,635.54a7,7,0,0,1-2.71.8,3.75,3.75,0,0,1-.93-.14,3.38,3.38,0,0,0-1.08,2.49,3.26,3.26,0,0,0,.84,2.23,6,6,0,0,0,1.17.12,11.31,11.31,0,0,0,4.65-1.31,3.19,3.19,0,0,0,.17-1A3.42,3.42,0,0,0,1548.66,635.54Zm62.19-118a34.49,34.49,0,0,0-12.91-5.91v4.86a29.14,29.14,0,0,1,10,4.76c5,3.94,7.52,9.46,7.52,16.89,0,15.49-11.15,38.34-30.6,62.72-12.72,15.94-25.76,28.2-33.46,33.13a6.23,6.23,0,0,1,2.14,4.13c9.81-6.05,24-20.53,35-34.33,9.51-11.92,31.62-42.17,31.62-65.65C1620.19,529.28,1617.05,522.34,1610.85,517.53Zm-99,85.33c-16.65-23.1-26.2-45.39-26.2-61.14,0-8.41,2.74-15,8.1-19.43a29.11,29.11,0,0,1,9.45-5.08v-4.93a34.74,34.74,0,0,0-12.46,6.39c-6.51,5.42-9.8,13.17-9.8,23.05,0,34.37,41.62,88.5,60.23,97.9a5.65,5.65,0,0,1-.07-.93,6.24,6.24,0,0,1,1.23-3.72C1536.08,631.32,1524.46,620.37,1511.86,602.86Z"/><path class="cls-24" d="M1543.93,638.69a3.31,3.31,0,0,0,.84,2.23,13.21,13.21,0,0,1-3.58-1.3,4.73,4.73,0,0,1-.08-.93,6.24,6.24,0,0,1,1.23-3.72,12.26,12.26,0,0,0,2.68,1.23A3.39,3.39,0,0,0,1543.93,638.69Z"/><path class="cls-23" d="M1550.61,639.73a3.49,3.49,0,0,0,.16-1,3.42,3.42,0,0,0-2.11-3.15,26.08,26.08,0,0,0,2.76-1.56,6.15,6.15,0,0,1,2.14,4.13A29.66,29.66,0,0,1,1550.61,639.73Z"/><path class="cls-7" d="M1637.05,443.28h-4V391.51h14v41.83A9.94,9.94,0,0,1,1637.05,443.28Z"/><path class="cls-7" d="M1464.1,443.28h4V391.51h-14v41.83A9.94,9.94,0,0,0,1464.1,443.28Z"/><path class="cls-7" d="M1443.6,235.76c-13.63,20.9-17.93,59.07-14.35,83.37-10.12,2.32-21.45-1-28.41-8.31,28.8,80.69,92.83,68.64,113.37,64.42s40.26-14.15,53-29.93c10.43-12.88,22.87-42.51,5.51-55.14-7.11-5.16-10.37-9.36-18.87-9.47C1538.84,280.51,1483.76,291.76,1443.6,235.76Z"/><path class="cls-7" d="M1574,308.7c4.49,15.89-4.11,51.54-23.4,69.76,24.47-1.06,48.94-14.71,59.76-31.18-5.64,20.71,3.3,45.17,15.06,58.82,14.63,13.65,24.42-19,21.6-20.86s-31-71.76-31-71.76l-21.65-10.43Z"/><path class="cls-7" d="M1647,301.8a39.23,39.23,0,0,0-36.34,24.46h34.66a39.21,39.21,0,0,1,36.63-3A39.21,39.21,0,0,0,1647,301.8Z"/><path class="cls-7" d="M1629,261.92a53.89,53.89,0,0,1-33,48.92v36.63a53.85,53.85,0,0,0,33-85.55Z"/><path class="cls-27" d="M1514.21,375.24c20.55-4.23,40.26-14.15,53-29.93a60.77,60.77,0,0,0,5.17-7.58c-89.38,42.75-152-.21-171.56-26.91C1429.64,391.51,1493.67,379.46,1514.21,375.24Z"/><path class="cls-28" d="M1180.42,992.62a28.72,28.72,0,0,1-25.76-41.32C1163.11,934,1179.07,875.92,1191,681a28.7,28.7,0,1,1,57.3,3.51c-12.94,211.06-30.22,267.75-42.1,292A28.7,28.7,0,0,1,1180.42,992.62Z"/><path class="cls-5" d="M1062.12,1530.53a50.15,50.15,0,0,0-12.29,1.53l-104.52,25c-15.09,3.53-26.3,16.51-26.3,32,0,18.2,15.47,33,34.55,33h108.56c26.47,0,47.92-20.47,47.92-45.72S1088.59,1530.53,1062.12,1530.53Z"/><path class="cls-17" d="M1060.26,1512a45.84,45.84,0,0,0-11.73,1.53l-99.71,25a33,33,0,0,0,7.87,65h103.57a45.72,45.72,0,0,0,0-91.44Z"/><path class="cls-17" d="M1077.52,1503.44h0A28.46,28.46,0,0,1,1106,1531.9v20.15a28.46,28.46,0,0,1-28.46,28.46h0a28.46,28.46,0,0,1-28.46-28.46V1531.9A28.46,28.46,0,0,1,1077.52,1503.44Z"/><path class="cls-5" d="M1102.51,1586.73c1.84,11.53-10.23,23-27,25.7s-31.78-4.5-33.62-16,10.24-23,27-25.7S1100.67,1575.21,1102.51,1586.73Z"/><path class="cls-5" d="M1165.51,1700.38h0a47.4,47.4,0,0,1,28.38-60.74l82-29.77a47.4,47.4,0,0,1,60.74,28.38h0a47.4,47.4,0,0,1-28.38,60.74l-82,29.78A47.41,47.41,0,0,1,1165.51,1700.38Z"/><path class="cls-17" d="M1173.2,1703.17h0a47.4,47.4,0,0,1,14-65.56l73.21-47.44a47.41,47.41,0,0,1,65.57,14h0a47.41,47.41,0,0,1-14,65.57l-81.61,42.7C1208.4,1726.68,1183.36,1717.32,1173.2,1703.17Z"/><path class="cls-28" d="M1199.41,981.12a38.9,38.9,0,0,1-38.9,38.9h0a38.9,38.9,0,0,1-38.89-38.9h0a38.89,38.89,0,0,1,38.89-38.89h0a38.9,38.9,0,0,1,38.9,38.89Z"/><path class="cls-26" d="M1147.27,995.51h-63.09a16,16,0,0,1,0-32h63.09a16,16,0,0,1,0,32Z"/><path class="cls-25" d="M1140.9,956.5l-10.35-14.75h-44.7L1075.5,956.5v49.24l10.35,14.75h44.7l10.35-14.75Z"/><path class="cls-24" d="M1114.06,956.5l-10.35-14.75H1059l-10.35,14.75v49.24l10.35,14.75h44.7l10.35-14.75Z"/><path class="cls-24" d="M1065.86,1007.32l-4-5.74V960.66l4-5.73h31l4,5.73v40.92l-4,5.74Z"/><path class="cls-25" d="M1069.62,1005.71l-4-5.74V959.05l2.89-4.12h-2.63l-4,5.73v40.92l4,5.74h31l1.13-1.61Z"/><path class="cls-25" d="M1077,992l-2.11-2.37v-17l2.11-2.38h16.27l2.11,2.38v17l-2.11,2.37Z"/><path class="cls-24" d="M1073.23,992l-2.12-2.37v-17l2.12-2.38h16.26l2.12,2.38v17l-2.12,2.37Z"/><path class="cls-25" d="M1459.64,1033.08l-10.36-14.75h-44.7l-10.35,14.75v49.24l10.35,14.75h44.7l10.36-14.75Z"/><path class="cls-24" d="M1432.8,1033.08l-10.35-14.75h-44.7l-10.36,14.75v49.24l10.36,14.75h44.7l10.35-14.75Z"/><path class="cls-24" d="M1384.59,1083.9l-4-5.74v-40.92l4-5.74h31l4,5.74v40.92l-4,5.74Z"/><path class="cls-25" d="M1388.36,1082.28l-4-5.73v-40.92l2.9-4.13h-2.64l-4,5.74v40.92l4,5.74h31l1.13-1.62Z"/><path class="cls-29" d="M1308.53,968.29c19-25.11-45.92-74-77.1-56.54l-.5-.24A32.46,32.46,0,0,0,1188,927.78c-1.14,2.53-114.26,253.59-127.7,281.29a32.54,32.54,0,0,0-3.06,17.75c5.09,46-8.67,178-29.45,282.65a32.47,32.47,0,0,0,25.52,38.17,32.88,32.88,0,0,0,6.36.63,32.48,32.48,0,0,0,31.81-26.15c18.71-94.19,35.16-228.69,31.12-292.9,3.79-8.13,9.42-20.38,16.22-35.27C1185.18,1129.22,1265.63,1025.07,1308.53,968.29Z"/><path class="cls-30" d="M1231.43,911.75l-.5-.24A32.45,32.45,0,0,0,1188,927.78c-.74,1.62-47.52,105.47-84.54,187.06a66.32,66.32,0,0,0,62.11,42.43c46.32-62.66,107.48-142,143-189C1327.5,943.18,1262.61,894.29,1231.43,911.75Z"/><path class="cls-31" d="M1329.8,1287q-.35-13.08-1-26.18c13.67-85.15,21.58-252,11.35-301.65l-.15-.69-.18-.86h0a72.12,72.12,0,0,0-45.71-51.91,24.74,24.74,0,0,1-15.33-16.5c-5.56-19.58-8.48-36.6-9.28-52.19,4.48-61.34,112.36-140.39,5.29-184.85-1-.47-1.94-.93-2.94-1.36a51.86,51.86,0,0,0-14.73-3.79h0a51.78,51.78,0,0,0-53,31.39c-16.76,39.77-35.76,84.84-38,138.53-2.18,53.15,11.4,109.86,44,183.69,4.67,14.65,13.24,26.88,25.13,34.84,11.79,64.62,27.75,163.38,29.83,257.41a32.57,32.57,0,0,0,1.47,9c20.57,65.69,17.68,205.27-6.08,292.85a32.47,32.47,0,1,0,62.67,17C1349.82,1513,1352.71,1366.05,1329.8,1287Z"/><path class="cls-17" d="M1340,958.49l-.18-.86h0a72.12,72.12,0,0,0-45.71-51.91,24.74,24.74,0,0,1-13.73-12.33c-21,12.57-45.9,17.2-70.31,19.8-7.35.78-14.85,1.4-22.08-.16a30.24,30.24,0,0,1-11.16-4.83c7.26,28.07,18.23,58.44,33.23,92.44,4.67,14.65,12.3,26.88,24.19,34.84,7,38.34,12.9,88.69,18.81,142.94a18.34,18.34,0,0,0,10.59,14.82q21.51,9.65,65.33-2.74a18.62,18.62,0,0,0,13.47-16.46c6.46-82.94,5.08-179.19-2.28-214.86Z"/><path class="cls-31" d="M1217.87,659.37c-10.4,17.86-57.26,66.2-74,89.16,36.46,15.6,98.67,30.61,98.67,30.61s15.81-6.59,15.34-8,22.28-74.81,22.28-74.81Z"/><path class="cls-31" d="M1234.74,740.83h0l-62-5.75h-.07l-.26,0h0c-.94-.09-1.89-.14-2.85-.14a30.92,30.92,0,0,0-2.86,61.7h0l62,5.75h.07l.26,0h0c.94.08,1.89.14,2.86.14a30.92,30.92,0,0,0,2.85-61.7Z"/><path class="cls-31" d="M1416.5,1047.79c0-143.36-44.31-283.91-82.24-360.71a28.7,28.7,0,1,0-51.47,25.43c31.81,64.4,68.45,177.26,75.2,296.91a45.78,45.78,0,1,0,58.35,44q0-1.11-.06-2.22A28,28,0,0,0,1416.5,1047.79Z"/><path class="cls-32" d="M1416.5,1047.79c0-143.36-44.31-283.91-82.24-360.71a28.54,28.54,0,0,0-10-11.28c37.28,77.93,79.43,215.09,79.43,354.93a28,28,0,0,1-.21,3.45c0,.73.06,1.47.06,2.21a45.78,45.78,0,0,1-75,35.24,45.79,45.79,0,0,0,87.81-18.18q0-1.11-.06-2.22A28,28,0,0,0,1416.5,1047.79Z"/><path class="cls-23" d="M1290,690.63c5.46-10.44,10.19-19.48,12.3-23.39a3.91,3.91,0,0,0-1.25-5.18,3.77,3.77,0,0,0-5.28,1.42c-2.07,3.85-6.88,13-12.44,23.66-5.41,10.34-11.51,22-16.58,31.56a25.63,25.63,0,0,1-10.15,10.51c-17.08,9.48-37,10.6-49.95,1.94a28.56,28.56,0,0,1-12.17-18.72,22.64,22.64,0,0,1,3.91-17.73c1-1.41,2-2.82,3.07-4.27,6.4-8.9,13.64-19,25.47-33.14a3.91,3.91,0,0,0-.18-5.34,3.76,3.76,0,0,0-5.45.34c-12.09,14.45-19.46,24.7-26,33.75-3.17,4.41-6.15,8.57-9.33,12.7a4.23,4.23,0,0,0-.33.53c-14.9,17-31,35-40.2,47.15-.54.68-1.07,1.37-1.56,2.1h0a30.92,30.92,0,0,0,22.77,48.08h0c.35,0,.68,0,1,.09q-1,8.43-1.48,17.17c12.81,15.94,69.25,12.25,107.58,3.69,3.87-11.14,9.85-22.65,16.31-34.26C1278,778.06,1269,759.49,1269,737.38v-.08a27.92,27.92,0,0,1,3.33-13C1277.59,714.3,1284.18,701.71,1290,690.63Z"/><path class="cls-33" d="M1259.53,757.75c0,.54,0,1.08,0,1.62a30.91,30.91,0,0,1-30.91,30.92c-1,0-1.92,0-2.86-.14h0l-.26,0h-.07l-62-5.75h0a31,31,0,0,1-24.79-16.93,30.93,30.93,0,0,0,28,29.16h0l62,5.75h.07l.26,0h0c.94.08,1.89.14,2.86.14a30.94,30.94,0,0,0,27.64-44.78Z"/><path class="cls-34" d="M1305.5,580.2c-1.59,5.18-2.91,10.53-2.76,15.94s1.88,11,5.69,14.81,9.9,5.65,14.9,3.57a17.07,17.07,0,0,1-16,4.42,16.56,16.56,0,0,1-11.42-11.75A21,21,0,0,0,1294,621a19.26,19.26,0,0,0,7.31,11.16c-8.15-2.37-16-8-19.55-15.68a27,27,0,0,1,1-24.49C1287,584.68,1297,580,1305.5,580.2Z"/><path class="cls-34" d="M1339.71,514.62h-19.66c-13.08,46.35,24.6,63.76,43.9,57.64C1337.13,556,1340,537.21,1339.71,514.62Z"/><path class="cls-34" d="M1349.21,504c-1.69,15.94-1.18,32.3,16.47,36.54-15.1,7.72-33.41,2.52-37.65-13.33S1349.21,504,1349.21,504Z"/><path class="cls-17" d="M1369,485.94a38.06,38.06,0,1,1-38.06-38.06A38.06,38.06,0,0,1,1369,485.94Z"/><path class="cls-34" d="M1365.43,469.91c.12,1.25.19,2.52.19,3.8a38.06,38.06,0,0,1-72.58,16,38.06,38.06,0,1,0,72.39-19.83Z"/><path class="cls-17" d="M1144.52,519.75c0-56.33,43.91-102,98.06-102s98.07,45.66,98.07,102c0,78.39-43.91,92.82-98.07,92.82S1144.52,576.07,1144.52,519.75Z"/><path class="cls-35" d="M1193.62,573.45A23.53,23.53,0,0,1,1170.09,597h0a23.52,23.52,0,0,1-23.53-23.52h0a23.52,23.52,0,0,1,23.53-23.53h0a23.53,23.53,0,0,1,23.53,23.53Z"/><path class="cls-31" d="M1295.9,593.89c-.16.51-.34,1-.54,1.52-7.44,19.16-15.19,51.41-14.42,67.06A29.16,29.16,0,0,1,1253.25,693c-.49,0-1,0-1.47,0a29.17,29.17,0,0,1-29.11-27.73A123.42,123.42,0,0,1,1223,650c2.07-26.61,11.24-58.27,18-75.69a29.17,29.17,0,0,1,54.93,19.6Z"/><path class="cls-32" d="M1295.9,593.89c-17.57,31.69-47.75,53.66-72.92,56.09,2.07-26.61,11.24-58.27,18-75.69a29.17,29.17,0,0,1,54.93,19.6Z"/><path class="cls-31" d="M1233.45,435.64c-46.25,0-83.75,26.41-83.75,88s36.7,111.51,75.28,111.51,92.23-49.92,92.23-111.51S1279.71,435.64,1233.45,435.64Z"/><path class="cls-17" d="M1330.91,517c0,28-15,50.61-33.44,50.61h0C1279,567.63,1264,545,1264,517h0c0-28,15-50.62,33.43-50.62h0c18.47,0,33.44,22.66,33.44,50.62Z"/><path class="cls-17" d="M1284,447.88c-4,38.9-29.21,98.19-103.76,103.52,6.08-3.45,15.15-17.26,17.28-26-11.08,13.8-49.55,36.2-75.86-1,14.31,6.09,46.41,2.29,54.93-30.34S1284,447.88,1284,447.88Z"/><path class="cls-31" d="M1320.88,573.94a23.53,23.53,0,0,1-23.53,23.52h0a23.53,23.53,0,0,1-23.53-23.52h0a23.53,23.53,0,0,1,23.53-23.53h0a23.53,23.53,0,0,1,23.53,23.53Z"/><path class="cls-17" d="M1294.31,442.55c-1.88-2.2-68.93-16.63-69.29-16.32s-27,11-29.67,11.92-28.71,21.34-30,23.22-15.68,32-15.68,32l-3.14,22s.34,15.39,1.74,16,52.22-21.73,52.22-21.73,30.74,6.19,32.93,0,22.9-11.53,24.47-11.53,19.45,1.57,19.45,1.57l-19.45-10.35,41.51,3.91,1.78.16s16-26.18,16-27.83S1296.19,444.74,1294.31,442.55Z"/><path class="cls-5" d="M1191,591.86a21.1,21.1,0,0,0,42.09,0Z"/><path class="cls-26" d="M1345.23,1072.08h-63.09a16,16,0,1,1,0-32h63.09a16,16,0,1,1,0,32Z"/><path class="cls-25" d="M1338.86,1033.08l-10.35-14.75h-44.7l-10.35,14.75v49.24l10.35,14.75h44.7l10.35-14.75Z"/><path class="cls-24" d="M1312,1033.08l-10.35-14.75H1257l-10.35,14.75v49.24l10.35,14.75h44.7l10.35-14.75Z"/><path class="cls-24" d="M1263.82,1083.9l-4-5.74v-40.92l4-5.74h31l4,5.74v40.92l-4,5.74Z"/><path class="cls-25" d="M1267.58,1082.28l-4-5.73v-40.92l2.89-4.13h-2.63l-4,5.74v40.92l4,5.74h31l1.13-1.62Z"/><path class="cls-25" d="M1275,1068.56l-2.11-2.38v-17l2.11-2.38h16.27l2.11,2.38v17l-2.11,2.38Z"/><path class="cls-24" d="M1271.19,1068.56l-2.12-2.38v-17l2.12-2.38h16.26l2.12,2.38v17l-2.12,2.38Z"/><path class="cls-17" d="M1268.57,1644.44,1232.74,1631l14-37.25a19.13,19.13,0,0,1,24.63-11.2h0a19.14,19.14,0,0,1,11.2,24.64Z"/><path class="cls-5" d="M1335.16,1648.51c4.95,7.65,0,19.66-11.07,26.84s-24.07,6.78-29-.87,0-19.66,11.06-26.84S1330.2,1640.85,1335.16,1648.51Z"/><path class="cls-5" d="M1260.71,1651a5.16,5.16,0,0,1-3.15-1.58L1233,1623.5a5.17,5.17,0,1,1,7.51-7.12l24.55,25.92a5.18,5.18,0,0,1-4.36,8.7Z"/><path class="cls-5" d="M1239.37,1660.6a5.18,5.18,0,0,1-3.15-1.58l-24.55-25.92a5.18,5.18,0,1,1,7.52-7.12l24.54,25.92a5.17,5.17,0,0,1-4.36,8.7Z"/><path class="cls-5" d="M1218,1670.2a5.21,5.21,0,0,1-3.15-1.58l-23.14-24.43a5.18,5.18,0,1,1,7.52-7.12l23.14,24.43a5.18,5.18,0,0,1-4.37,8.7Z"/><path class="cls-17" d="M1010.29,1493.59h0a13.89,13.89,0,0,1,15.91,11.53l4.27,26.75-27.44,4.38-4.27-26.75A13.9,13.9,0,0,1,1010.29,1493.59Z"/><path class="cls-5" d="M1008,1543.27a5.18,5.18,0,0,1-4.42-2.46l-7.68-12.51a5.18,5.18,0,0,1,8.83-5.42l7.68,12.51a5.18,5.18,0,0,1-1.71,7.12A5.12,5.12,0,0,1,1008,1543.27Z"/><path class="cls-5" d="M989.31,1547.68a5.19,5.19,0,0,1-4.42-2.47l-7.68-12.51a5.18,5.18,0,1,1,8.83-5.41l7.68,12.5a5.19,5.19,0,0,1-4.41,7.89Z"/><path class="cls-5" d="M970.61,1552.08a5.16,5.16,0,0,1-4.41-2.47l-7.68-12.5a5.18,5.18,0,1,1,8.82-5.42l7.68,12.5a5.19,5.19,0,0,1-4.41,7.89Z"/><path class="cls-31" d="M1324.77,1285.13c25.69,11.29,52.67,49.59,14.09,221.47C1315.33,1482.13,1324.77,1285.13,1324.77,1285.13Z"/><path class="cls-29" d="M1119.78,1215.76c23.19,15.81,42.69,58.4-26.73,220.3C1074.4,1407.69,1119.78,1215.76,1119.78,1215.76Z"/><path class="cls-20" d="M1279.4,957.05l-6.35,3.61L1267,929l6.36-3.61Z"/><path class="cls-20" d="M1291.62,950.11l-6.36,3.61-6-31.65,6.35-3.61Z"/></svg>